HIERARCHY
ROOT joint_Root
{
	OFFSET 0.0 0.0 0.0
	CHANNELS 6 Xposition Yposition Zposition Zrotation Xrotation Yrotation 
	JOINT Hips
	{
		OFFSET -0.726466 93.3139 -2.00062
		CHANNELS 6 Xposition Yposition Zposition Zrotation Xrotation Yrotation 
		JOINT Spine
		{
			OFFSET 15.7357 0.0 0.0
			CHANNELS 6 Xposition Yposition Zposition Zrotation Xrotation Yrotation 
			JOINT Chest
			{
				OFFSET 8.98455 -0.406207 0.0
				CHANNELS 6 Xposition Yposition Zposition Zrotation Xrotation Yrotation 
				JOINT Neck
				{
					OFFSET 16.3773 0.0 0.0
					CHANNELS 6 Xposition Yposition Zposition Zrotation Xrotation Yrotation 
					JOINT Head
					{
						OFFSET 6.45672 0.0 0.0
						CHANNELS 6 Xposition Yposition Zposition Zrotation Xrotation Yrotation 
						End Site
						{
							OFFSET 0.0 0.0 0.0
						}
					}
				}
				JOINT Shoulder_L
				{
					OFFSET 12.9942 -0.242716 4.98039
					CHANNELS 6 Xposition Yposition Zposition Zrotation Xrotation Yrotation 
					JOINT UpperArm_L
					{
						OFFSET 5.34809 0.0 0.0
						CHANNELS 6 Xposition Yposition Zposition Zrotation Xrotation Yrotation 
						JOINT LowerArm_L
						{
							OFFSET 24.3286 1.87007e-05 0.0
							CHANNELS 6 Xposition Yposition Zposition Zrotation Xrotation Yrotation 
							JOINT Hand_L
							{
								OFFSET 22.2916 0.0 0.0
								CHANNELS 6 Xposition Yposition Zposition Zrotation Xrotation Yrotation 
								End Site
								{
									OFFSET 0.0 0.0 0.0
								}
							}
						}
					}
				}
				JOINT Shoulder_R
				{
					OFFSET 12.9945 -0.242716 -4.98039
					CHANNELS 6 Xposition Yposition Zposition Zrotation Xrotation Yrotation 
					JOINT UpperArm_R
					{
						OFFSET -5.34813 0.0 0.0
						CHANNELS 6 Xposition Yposition Zposition Zrotation Xrotation Yrotation 
						JOINT LowerArm_R
						{
							OFFSET -24.3289 0.000322201 0.0
							CHANNELS 6 Xposition Yposition Zposition Zrotation Xrotation Yrotation 
							JOINT Hand_R
							{
								OFFSET -22.2915 -0.000108084 0.0
								CHANNELS 6 Xposition Yposition Zposition Zrotation Xrotation Yrotation 
								End Site
								{
									OFFSET 0.0 0.0 0.0
								}
							}
						}
					}
				}
			}
		}
		JOINT UpperLeg_L
		{
			OFFSET -2.19248 -6.46944 0.0
			CHANNELS 6 Xposition Yposition Zposition Zrotation Xrotation Yrotation 
			JOINT LowerLeg_L
			{
				OFFSET 39.0811 0.0 -1.23785e-05
				CHANNELS 6 Xposition Yposition Zposition Zrotation Xrotation Yrotation 
				JOINT Foot_L
				{
					OFFSET 40.9854 0.0 -1.26872e-05
					CHANNELS 6 Xposition Yposition Zposition Zrotation Xrotation Yrotation 
					JOINT Toes_L
					{
						OFFSET 11.7543 0.0 0.0
						CHANNELS 6 Xposition Yposition Zposition Zrotation Xrotation Yrotation 
						End Site
						{
							OFFSET 0.0 0.0 0.0
						}
					}
				}
			}
		}
		JOINT UpperLeg_R
		{
			OFFSET -2.19251 6.46944 0.0
			CHANNELS 6 Xposition Yposition Zposition Zrotation Xrotation Yrotation 
			JOINT LowerLeg_R
			{
				OFFSET -39.0811 -0.00228153 -0.0401928
				CHANNELS 6 Xposition Yposition Zposition Zrotation Xrotation Yrotation 
				JOINT Foot_R
				{
					OFFSET -40.9854 0.0 0.0
					CHANNELS 6 Xposition Yposition Zposition Zrotation Xrotation Yrotation 
					JOINT Toes_R
					{
						OFFSET -11.7543 0.0 0.0
						CHANNELS 6 Xposition Yposition Zposition Zrotation Xrotation Yrotation 
						End Site
						{
							OFFSET 0.0 0.0 0.0
						}
					}
				}
			}
		}
	}
}
MOTION
Frames:	4
Frame Time:	0.0333333
0.000000 0.000000 0.000000 0.000000 0.000000 -0.000000 140.130000 89.888000 -111.558000 86.121500 -5.995260 3.113380 15.735700 0.000005 -0.000001 92.371400 81.477900 -92.312900 8.984550 -0.406207 -0.000000 9.263790 0.702107 0.060017 16.377300 -0.000001 -0.000001 7.270560 -1.155580 1.030340 6.456720 -0.000001 -0.000000 3.009150 -0.987425 -1.353590 12.994200 -0.242716 4.980390 -89.135600 -2.380930 -70.038800 5.348090 -0.000007 -0.000001 -62.833400 27.544000 -14.256300 24.328600 0.000019 0.000005 1.100970 1.421640 -37.761800 22.291600 -0.000001 0.000005 3.505350 5.540450 -8.262380 12.994500 -0.242716 -4.980390 88.855900 3.093800 -69.693600 -5.348130 -0.000001 -0.000004 -58.047500 35.636800 -20.357400 -24.328900 0.000322 -0.000009 5.172400 7.500470 -34.745800 -22.291500 -0.000108 -0.000004 -0.174110 5.537280 -8.118670 -2.192480 -6.469440 -0.000000 -177.006000 -10.511700 -13.308700 39.081100 -0.000007 -0.000012 0.026234 -0.032315 39.068800 40.985400 -0.000006 -0.000013 3.784070 -6.407880 -72.487700 11.754300 -0.000000 0.000003 -0.927511 -1.195330 -14.675800 -2.192510 6.469440 -0.000001 175.188000 15.554400 165.178000 -39.081100 -0.002282 -0.040193 0.284516 -0.128160 65.510500 -40.985400 0.000008 0.000006 1.438360 -4.025110 -51.575400 -11.754300 -0.000006 -0.000006 -0.022741 -0.182022 -24.015400
0.000000 0.000000 0.000000 0.000000 0.000000 -0.000000 140.202000 90.763600 -108.655000 85.472100 -4.425660 3.238850 15.735700 0.000005 -0.000001 88.610200 81.592500 -88.098700 8.984550 -0.406207 -0.000000 9.046100 -0.399967 1.053640 16.377300 -0.000001 -0.000001 7.631310 -1.649870 0.871548 6.456720 -0.000001 -0.000000 3.015380 -0.528804 -1.099340 12.994200 -0.242716 4.980390 -89.037400 -2.783180 -70.912500 5.348090 -0.000007 -0.000001 -59.928600 28.324700 -19.055200 24.328600 0.000019 0.000005 1.342100 1.627090 -39.523900 22.291600 -0.000001 0.000005 2.643500 5.532400 -7.900450 12.994500 -0.242716 -4.980390 88.895800 2.834250 -68.704300 -5.348130 -0.000001 -0.000004 -59.995700 35.396800 -15.614000 -24.328900 0.000322 -0.000009 5.093120 7.329280 -34.945500 -22.291500 -0.000108 -0.000004 -0.457307 5.533560 -7.952880 -2.192480 -6.469440 -0.000000 -176.154000 -9.676750 -9.044020 39.081100 -0.000007 -0.000012 0.013979 -0.020058 34.872500 40.985400 -0.000006 -0.000013 3.566470 -5.571930 -72.265000 11.754300 -0.000000 0.000003 -0.801173 -1.026270 -14.394800 -2.192510 6.469440 -0.000001 177.845000 18.516300 162.283000 -39.081100 -0.002282 -0.040193 0.221096 -0.123902 60.376500 -40.985400 0.000008 0.000006 1.106310 -2.888870 -53.616200 -11.754300 -0.000006 -0.000006 -0.021853 -0.177346 -23.822400
0.000000 0.000000 0.000000 0.000000 0.000000 -0.000000 140.237000 91.354000 -105.869000 84.947100 -2.948790 3.193600 15.735700 0.000005 -0.000001 84.976800 81.618300 -84.077000 8.984550 -0.406207 -0.000000 8.947250 -1.450930 1.911500 16.377300 -0.000001 -0.000001 7.616060 -2.097760 0.795383 6.456720 -0.000001 -0.000000 3.051110 -0.166778 -1.015630 12.994200 -0.242716 4.980390 -88.985400 -3.053120 -71.608000 5.348090 -0.000007 -0.000001 -56.243700 28.857700 -23.981800 24.328600 0.000019 0.000005 1.951560 2.214250 -41.408300 22.291600 -0.000001 0.000005 2.453760 5.530990 -7.838590 12.994500 -0.242716 -4.980390 88.907100 2.680210 -67.806000 -5.348130 -0.000001 -0.000004 -61.334900 34.842100 -11.550900 -24.328900 0.000322 -0.000009 5.136820 7.300100 -35.284000 -22.291500 -0.000108 -0.000004 -0.659351 5.536320 -8.076250 -2.192480 -6.469440 -0.000000 -175.396000 -8.992780 -5.330200 39.081100 -0.000007 -0.000012 0.005450 -0.009040 31.082200 40.985400 -0.000006 -0.000013 3.473600 -4.757370 -72.020700 11.754300 -0.000000 0.000003 -0.893738 -1.152870 -14.483100 -2.192510 6.469440 -0.000001 -179.413000 20.699100 159.898000 -39.081100 -0.002282 -0.040193 0.149802 -0.110564 52.970500 -40.985400 0.000008 0.000006 0.448991 -2.102770 -55.150700 -11.754300 -0.000006 -0.000006 -0.021633 -0.176172 -23.774000
0.000000 0.000000 0.000000 0.000000 0.000000 -0.000000 140.257000 91.597400 -103.286000 84.650500 -1.454660 2.765950 15.735700 0.000005 -0.000001 81.525900 81.620900 -80.322000 8.984550 -0.406207 -0.000000 8.842240 -2.445720 2.595030 16.377300 -0.000001 -0.000001 7.389810 -2.481660 0.795734 6.456720 -0.000001 -0.000000 2.879870 0.047555 -0.879215 12.994200 -0.242716 4.980390 -88.935100 -3.310890 -72.158400 5.348090 -0.000007 -0.000001 -52.123100 28.927200 -28.918700 24.328600 0.000019 0.000005 2.422850 2.554390 -43.510600 22.291600 -0.000001 0.000005 2.605820 5.532250 -7.894440 12.994500 -0.242716 -4.980390 88.912600 2.562860 -66.999600 -5.348130 -0.000001 -0.000004 -62.382300 33.681000 -8.003600 -24.328900 0.000322 -0.000009 5.099160 7.074440 -35.930600 -22.291500 -0.000108 -0.000004 -0.871844 5.535600 -8.043360 -2.192480 -6.469440 -0.000000 -174.918000 -8.257540 -2.731450 39.081100 -0.000007 -0.000012 -0.000603 0.001119 28.333900 40.985400 -0.000006 -0.000013 3.369310 -4.086550 -72.233700 11.754300 -0.000000 0.000003 -1.028480 -1.344350 -14.364800 -2.192510 6.469440 -0.000001 -176.719000 22.648000 157.553000 -39.081100 -0.002282 -0.040193 0.090733 -0.090595 43.993100 -40.985400 0.000008 0.000006 0.190849 -1.500400 -55.405300 -11.754300 -0.000006 -0.000006 -0.021961 -0.177915 -23.845900
